# xmcd
#
# Track frame offsets: 
#        150
#        17405
#        38067
#        59865
#        76785
#        91912
#        110754
#        124584
#        141596
#        181125
#
# Disc length: 2594 seconds
#
# Revision: 0
# Processed by: cddbd v1.5.2PL0 Copyright (c) Steve Scherf et al.
# Submitted via: ExactAudioCopy v1.0b3
#
DISCID=810a200a
DTITLE=buddy whittington - buddy whittington
DYEAR=1900
DGENRE=Blues
TTITLE0=Young and Dumb 
TTITLE1=Pay the Band 
TTITLE2=Minor Blues 
TTITLE3=Stevie Rave on 
TTITLE4=Second Banana
TTITLE5=Greenwood 
TTITLE6=Can't Be Good for Me 
TTITLE7=Romance Classified 
TTITLE8=Sure Got Cold After the Rain Fell 
TTITLE9=Every Goodbye Ain't Gone 
EXTD=
EXTT0=
EXTT1=
EXTT2=
EXTT3=
EXTT4=
EXTT5=
EXTT6=
EXTT7=
EXTT8=
EXTT9=
PLAYORDER=
